# xmcd
#
# Track frame offsets:
#	182
#	10557
#	22125
#	33050
#	46420
#	58420
#	73422
#	84780
#	95080
#	104945
#	116757
#	127667
#	139672
#	153062
#	163475
#	175562
#	187267
#	199375
#	213430
#
# Disc length: 2996 seconds
# Revision: 5
# Processed by: cddbd v1.5.2PL0 Copyright (c) Steve Scherf et al.
# Submitted via: dBpowerAMP V12.0
#
DISCID=130bb213
DTITLE=Various Artist - Country 2
DYEAR=1995
DGENRE=Country
TTITLE0=Faron Young - Hello Wals
TTITLE1=Kitty Wells - Password
TTITLE2=Billy Walker - Charlie's Shoes
TTITLE3=Nat Stuckey - Sweet Thang
TTITLE4=Del Reewes - The Girl on The Billboard
TTITLE5=Jeannie C. Riley - Harper Valley p.t.a.
TTITLE6=Wynn Stewart - It's Such a Pretty World Today
TTITLE7=Warner Mack - The Bridge Washed Out
TTITLE8=Claude King - The Commancheros
TTITLE9=David Huston - Alredy It's Heaven
TTITLE10=Ferlin Husky - (On The) Wings of a Dove
TTITLE11=Jack Greene - There Goes my Everything
TTITLE12=Dave Dudley - The Pool Shark
TTITLE13=Johnny Darrell - Ruby, Don't Take Your Love to Town
TTITLE14=Roy Drusky - Another
TTITLE15=Henson Cargill - Skip a Rope
TTITLE16=Ernest Ashworth - Talk Back Trembling Lips
TTITLE17=Billy Jo Spears - Mr. Walker It's All Over
TTITLE18=Kitty Wells - Heartbreaker u.s.a.
EXTD=
EXTT0=
EXTT1=
EXTT2=
EXTT3=
EXTT4=
EXTT5=
EXTT6=
EXTT7=
EXTT8=
EXTT9=
EXTT10=
EXTT11=
EXTT12=
EXTT13=
EXTT14=
EXTT15=
EXTT16=
EXTT17=
EXTT18=
PLAYORDER=
